<svg width="150" height="39" viewBox="0 0 150 39" fill="none" xmlns="http://www.w3.org/2000/svg">
<path d="M105.69 14.5406H84.5154C84.6561 17.0679 85.6218 19.1624 87.4126 20.8242C89.1683 22.5207 91.3279 23.3688 93.8911 23.3688C95.8926 23.3688 97.5958 22.9015 99.0004 21.9667C100.405 20.9974 101.406 19.6298 102.003 17.8642L105.374 18.9028C104.636 21.3262 103.214 23.2477 101.107 24.6671C98.9301 26.0519 96.5422 26.7444 93.944 26.7444C91.4858 26.7444 89.2208 26.1385 87.1493 24.9268C85.0776 23.715 83.4972 22.0879 82.4086 20.0453C81.2501 18.0373 80.6704 15.8043 80.6704 13.3462C80.6704 10.992 81.2147 8.81092 82.3033 6.80291C83.3218 4.7603 84.8493 3.11584 86.8858 1.86951C88.8522 0.62317 91.0293 0 93.4172 0C96.0508 0 98.2983 0.588549 100.159 1.76565C102.055 2.90812 103.46 4.48337 104.373 6.49134C105.286 8.39546 105.743 10.6631 105.743 13.2943C105.743 13.7443 105.725 14.1598 105.69 14.5406ZM84.5683 11.3209H101.897C101.651 8.9667 100.774 7.02798 99.2636 5.50467C97.789 4.05061 95.8401 3.32357 93.4172 3.32357C91.2051 3.32357 89.2561 4.10252 87.5704 5.66046C85.8851 7.28761 84.8843 9.17443 84.5683 11.3209Z" fill="#D6DEE4"/>
<path d="M112.667 38.9999H108.506L115.3 24.5112L103.396 0.467285H107.768L117.355 20.4087L126.467 0.467285H130.575L112.667 38.9999Z" fill="#D6DEE4"/>
<path d="M138.57 11.3728H145.839V9.65913C145.839 5.47003 143.609 3.3755 139.15 3.3755C137.007 3.3755 135.357 3.94673 134.198 5.08922C133.145 6.12782 132.513 7.30491 132.302 8.62053L128.615 7.84155C128.65 7.11452 129.001 6.19706 129.668 5.08922C130.336 3.98137 131.213 2.99468 132.302 2.12916C134.163 0.709722 136.481 0 139.255 0C144.03 0 147.208 1.78296 148.788 5.34889C149.315 6.56058 149.578 7.98004 149.578 9.60719V16.8775C149.578 21.1012 149.719 24.2344 150 26.277H146.207C145.962 24.9614 145.839 23.4554 145.839 21.759C143.627 25.0826 140.677 26.7444 136.99 26.7444C134.356 26.7444 132.25 26.0173 130.669 24.5633C129.019 23.1438 128.194 21.3262 128.194 19.1105V18.8509C128.194 16.289 129.23 14.4021 131.301 13.1904C133.408 11.9787 135.831 11.3728 138.57 11.3728ZM145.839 15.3715V14.4887H138.517C136.902 14.4887 135.48 14.783 134.251 15.3715C132.776 15.9947 132.039 17.1372 132.039 18.7989C132.039 20.2184 132.583 21.3435 133.672 22.1744C134.725 23.0053 136.06 23.4208 137.675 23.4208C139.957 23.4208 141.906 22.6591 143.521 21.1358C145.066 19.6818 145.839 17.7603 145.839 15.3715Z" fill="#D6DEE4"/>
<path d="M57.8497 13.2423C57.8497 17.1198 59.3244 20.0107 62.274 21.9148C63.7137 22.8842 65.3994 23.3688 67.3304 23.3688C69.4376 23.3688 71.2283 22.8322 72.7029 21.759C73.2297 21.3782 73.774 20.8589 74.3358 20.2011C75.1083 19.1971 75.688 18.1931 76.074 17.1891L79.6033 18.3316C79.0062 20.4088 77.6719 22.2783 75.6001 23.9401C73.3526 25.8096 70.5787 26.7444 67.278 26.7444C63.5205 26.8136 60.3426 25.5672 57.7444 23.0053C55.1808 20.4434 53.9169 17.2583 53.9519 13.4501C53.9519 10.9574 54.5665 8.65513 55.7955 6.54328C57.0244 4.46603 58.6572 2.85619 60.694 1.71372C62.7304 0.57124 64.978 0 67.4358 0C70.3855 0 72.984 0.796274 75.2315 2.38882C77.5137 4.08521 78.9183 6.04128 79.4451 8.25701L75.9687 9.39946C75.5826 8.01464 74.6344 6.66446 73.1244 5.34889C71.6497 4.03327 69.7183 3.3755 67.3304 3.3755C64.5915 3.3755 62.3269 4.32758 60.5358 6.2317C58.7451 8.17043 57.8497 10.5073 57.8497 13.2423Z" fill="#D6DEE4"/>
<path d="M50.9565 26.277H47.1115V11.269C47.1115 8.88016 46.4968 6.97604 45.2679 5.55658C44.039 4.13716 42.2479 3.42743 39.8954 3.42743C37.6129 3.42743 35.7343 4.2064 34.2595 5.76431C32.8198 7.35685 32.1 9.29562 32.1 11.5806V26.277H28.2549V0.46738H31.9946V5.19306C34.1015 1.73103 37.1215 0 41.0543 0C44.1443 0 46.5847 0.934756 48.3754 2.80426C50.0961 4.77764 50.9565 7.28761 50.9565 10.3342V26.277Z" fill="#D6DEE4"/>
<path d="M25.0192 14.5406H3.84507C3.9855 17.0679 4.95118 19.1624 6.742 20.8242C8.49775 22.5207 10.6573 23.3688 13.2207 23.3688C15.2222 23.3688 16.9253 22.9015 18.3299 21.9667C19.7345 20.9974 20.7352 19.6298 21.3322 17.8642L24.7032 18.9028C23.9657 21.3262 22.5436 23.2477 20.4368 24.6671C18.2596 26.0519 15.8718 26.7444 13.2734 26.7444C10.8153 26.7444 8.55043 26.1385 6.47864 24.9268C4.40689 23.715 2.82673 22.0879 1.73818 20.0453C0.579393 18.0373 0 15.8043 0 13.3462C0 10.992 0.544279 8.81092 1.63283 6.80291C2.65116 4.7603 4.17864 3.11584 6.21529 1.86951C8.18171 0.62317 10.3588 0 12.7466 0C15.3802 0 17.6276 0.588549 19.4886 1.76565C21.3848 2.90812 22.7894 4.48337 23.7024 6.49134C24.6154 8.39546 25.0719 10.6631 25.0719 13.2943C25.0719 13.7443 25.0543 14.1598 25.0192 14.5406ZM3.89771 11.3209H21.2268C20.981 8.9667 20.1031 7.02798 18.5932 5.50467C17.1184 4.05061 15.1695 3.32357 12.7466 3.32357C10.5344 3.32357 8.58554 4.10252 6.90004 5.66046C5.21454 7.28761 4.21375 9.17443 3.89771 11.3209Z" fill="#D6DEE4"/>
</svg>
