<svg width="200" height="52" viewBox="0 0 200 52" fill="none" xmlns="http://www.w3.org/2000/svg">
<g clip-path="url(#clip0)">
<path d="M140.92 19.3875H112.687C112.875 22.7572 114.162 25.5499 116.55 27.7656C118.891 30.0275 121.771 31.1584 125.188 31.1584C127.857 31.1584 130.128 30.5353 132.001 29.289C133.873 27.9965 135.208 26.1731 136.003 23.8189L140.498 25.2037C139.515 28.435 137.619 30.9969 134.81 32.8895C131.907 34.7359 128.723 35.6591 125.259 35.6591C121.981 35.6591 118.961 34.8513 116.199 33.2357C113.437 31.6201 111.33 29.4505 109.878 26.727C108.333 24.0497 107.561 21.0723 107.561 17.7949C107.561 14.656 108.286 11.7479 109.738 9.07055C111.096 6.34707 113.132 4.15446 115.848 2.49268C118.47 0.830894 121.372 0 124.556 0C128.068 0 131.064 0.784732 133.546 2.3542C136.074 3.8775 137.947 5.97783 139.164 8.65512C140.381 11.1939 140.99 14.2175 140.99 17.7257C140.99 18.3258 140.966 18.8797 140.92 19.3875ZM112.758 15.0946H135.863C135.535 11.9556 134.365 9.37064 132.352 7.33956C130.385 5.40081 127.787 4.43143 124.556 4.43143C121.607 4.43143 119.008 5.47002 116.761 7.54728C114.513 9.71681 113.179 12.2326 112.758 15.0946Z" fill="#0A0D13"/>
<path d="M150.222 52H144.674L153.734 32.6818L137.862 0.623169H143.691L156.473 27.2117L168.622 0.623169H174.1L150.222 52Z" fill="#0A0D13"/>
<path d="M184.761 15.1638H194.452V12.8788C194.452 7.29338 191.479 4.50067 185.533 4.50067C182.677 4.50067 180.476 5.26231 178.931 6.78562C177.527 8.17043 176.684 9.73988 176.403 11.494L171.487 10.4554C171.534 9.48603 172.002 8.26275 172.891 6.78562C173.781 5.30849 174.951 3.9929 176.403 2.83888C178.884 0.946296 181.974 0 185.673 0C192.041 0 196.278 2.37727 198.385 7.13185C199.087 8.74744 199.438 10.6401 199.438 12.8096V22.5033C199.438 28.1349 199.625 32.3125 200 35.0359H194.943C194.616 33.2818 194.452 31.2738 194.452 29.012C191.502 33.4434 187.57 35.6591 182.653 35.6591C179.142 35.6591 176.333 34.6898 174.226 32.751C172.025 30.8584 170.925 28.435 170.925 25.4807V25.1345C170.925 21.7186 172.306 19.2028 175.069 17.5872C177.878 15.9716 181.108 15.1638 184.761 15.1638ZM194.452 20.4953V19.3182H184.69C182.536 19.3182 180.64 19.7106 179.001 20.4953C177.035 21.3262 176.052 22.8496 176.052 25.0652C176.052 26.9578 176.778 28.458 178.229 29.5659C179.633 30.6738 181.413 31.2277 183.566 31.2277C186.61 31.2277 189.208 30.2121 191.362 28.1811C193.422 26.2424 194.452 23.6804 194.452 20.4953Z" fill="#0A0D13"/>
<path d="M77.1329 17.6565C77.1329 22.8264 79.0991 26.6809 83.032 29.2197C84.9515 30.5122 87.1991 31.1584 89.7739 31.1584C92.5834 31.1584 94.971 30.443 96.9372 29.012C97.6396 28.5042 98.3653 27.8118 99.1143 26.9348C100.144 25.5961 100.917 24.2574 101.432 22.9188L106.138 24.4421C105.341 27.2117 103.562 29.7044 100.8 31.9201C97.8034 34.4128 94.1048 35.6591 89.7039 35.6591C84.6939 35.7515 80.4567 34.0896 76.9924 30.6738C73.5743 27.2579 71.8891 23.0111 71.9358 17.9334C71.9358 14.6099 72.7553 11.5402 74.3939 8.72437C76.0324 5.95471 78.2096 3.80826 80.9253 2.28496C83.6405 0.761653 86.6372 0 89.9143 0C93.8472 0 97.3119 1.0617 100.309 3.18509C103.351 5.44695 105.224 8.05504 105.927 11.0093L101.291 12.5326C100.777 10.6862 99.5124 8.88595 97.4991 7.13185C95.5329 5.3777 92.9577 4.50067 89.7739 4.50067C86.1219 4.50067 83.1024 5.77011 80.7143 8.30894C78.3267 10.8939 77.1329 14.0097 77.1329 17.6565Z" fill="#0A0D13"/>
<path d="M67.9419 35.0359H62.8152V15.0253C62.8152 11.8402 61.9957 9.30138 60.3571 7.40877C58.7186 5.51621 56.3305 4.56991 53.1938 4.56991C50.1505 4.56991 47.6457 5.60853 45.6792 7.68574C43.7597 9.80914 42.7999 12.3942 42.7999 15.4407V35.0359H37.6731V0.623173H42.6594V6.92408C45.4686 2.30803 49.4952 0 54.739 0C58.8591 0 62.1129 1.24634 64.5005 3.73902C66.7948 6.37019 67.9419 9.71681 67.9419 13.779V35.0359Z" fill="#0A0D13"/>
<path d="M33.359 19.3875H5.12676C5.314 22.7572 6.60157 25.5499 8.98933 27.7656C11.3303 30.0275 14.2097 31.1584 17.6276 31.1584C20.2963 31.1584 22.567 30.5353 24.4398 29.289C26.3126 27.9965 27.647 26.1731 28.4429 23.8189L32.9376 25.2037C31.9543 28.435 30.0581 30.9969 27.249 32.8895C24.3462 34.7359 21.1624 35.6591 17.6978 35.6591C14.4204 35.6591 11.4006 34.8513 8.63819 33.2357C5.87586 31.6201 3.76898 29.4505 2.31757 26.727C0.772524 24.0497 0 21.0723 0 17.7949C0 14.656 0.725705 11.7479 2.17711 9.07055C3.53488 6.34707 5.57152 4.15446 8.28705 2.49268C10.909 0.830894 13.8118 0 16.9955 0C20.507 0 23.5034 0.784732 25.9849 2.3542C28.5131 3.8775 30.3859 5.97783 31.6032 8.65512C32.8205 11.1939 33.4292 14.2175 33.4292 17.7257C33.4292 18.3258 33.4058 18.8797 33.359 19.3875ZM5.19695 15.0946H28.3024C27.9747 11.9556 26.8042 9.37064 24.791 7.33956C22.8245 5.40081 20.226 4.43143 16.9955 4.43143C14.0459 4.43143 11.4474 5.47002 9.20005 7.54728C6.95271 9.71681 5.61833 12.2326 5.19695 15.0946Z" fill="#0A0D13"/>
</g>
<defs>
<clipPath id="clip0">
<rect width="200" height="52" fill="white"/>
</clipPath>
</defs>
</svg>
