<svg width="38" height="24" viewBox="0 0 38 24" fill="none" xmlns="http://www.w3.org/2000/svg">
<path d="M10.7355 0C11.8252 0 12.8057 0.0943504 13.7048 0.28675C14.5984 0.4773 15.3605 0.7918 16.0044 1.22655C16.6389 1.6613 17.1347 2.2385 17.4918 2.9637C17.8377 3.67965 18.0098 4.57505 18.0098 5.63325C18.0098 6.78025 17.7507 7.73855 17.2309 8.5026C16.7073 9.2685 15.9359 9.89565 14.9073 10.3804C16.3077 10.7855 17.3456 11.4941 18.0338 12.5005C18.7257 13.5161 19.0643 14.7316 19.0643 16.156C19.0643 17.3123 18.8441 18.3057 18.4019 19.1401C17.9579 19.9874 17.3493 20.6737 16.6 21.201C15.8452 21.7357 14.9795 22.1278 14.0119 22.385C13.0518 22.6384 12.0565 22.7661 11.0353 22.7661H0V0H10.7355ZM10.0862 9.1982C10.9742 9.1982 11.7105 8.9873 12.2914 8.55995C12.8686 8.13815 13.148 7.44255 13.148 6.4898C13.148 5.9607 13.0536 5.5241 12.8686 5.18185C12.6781 4.8433 12.4209 4.5769 12.0971 4.39005C11.7752 4.1958 11.4145 4.06445 10.9927 3.9923C10.5801 3.9109 10.1473 3.87945 9.70325 3.87945H5.0135V9.1982H10.0862ZM10.3656 18.8904C10.8595 18.8904 11.3294 18.8478 11.7716 18.7479C12.2174 18.6517 12.6133 18.4963 12.95 18.2651C13.2867 18.0431 13.5642 17.7415 13.764 17.3567C13.9656 16.9756 14.0637 16.4779 14.0637 15.8804C14.0637 14.7075 13.7326 13.8731 13.0777 13.3681C12.4209 12.8686 11.5403 12.6207 10.4618 12.6207H5.0135V18.8922H10.3656V18.8904ZM26.2108 18.8145C26.8897 19.4768 27.8684 19.8098 29.1412 19.8098C30.0533 19.8098 30.8414 19.5786 31.5055 19.1198C32.1604 18.6591 32.56 18.167 32.7136 17.6583H36.7003C36.0602 19.6415 35.089 21.0586 33.7607 21.9114C32.449 22.768 30.8525 23.1934 28.9877 23.1934C27.689 23.1934 26.5198 22.9844 25.4727 22.57C24.4237 22.15 23.545 21.5636 22.8105 20.7977C22.0909 20.0281 21.534 19.1198 21.1363 18.0504C20.7422 16.9886 20.5442 15.8119 20.5442 14.5373C20.5442 13.3052 20.7496 12.1527 21.1529 11.0889C21.5655 10.0215 22.1315 9.10015 22.8808 8.32685C23.6301 7.54985 24.5181 6.9375 25.5522 6.48795C26.5864 6.0421 27.726 5.81825 28.9895 5.81825C30.3844 5.81825 31.6035 6.08835 32.6507 6.63225C33.6922 7.17245 34.5487 7.9032 35.2221 8.81895C35.8937 9.731 36.3729 10.7763 36.6707 11.9473C36.9686 13.1165 37.0722 14.3375 36.987 15.6159H25.0897C25.0916 16.9183 25.53 18.1522 26.2108 18.8145ZM31.413 10.1547C30.8746 9.55895 29.9644 9.23705 28.8507 9.23705C28.1274 9.23705 27.5299 9.3573 27.0489 9.6052C26.579 9.85125 26.196 10.1546 25.9018 10.5135C25.6114 10.878 25.4116 11.2628 25.2951 11.6754C25.1804 12.0768 25.1101 12.4394 25.0897 12.7613H32.4564C32.3491 11.6069 31.9532 10.7541 31.413 10.1547ZM24.1647 1.5281H33.3944V3.77585H24.1647V1.5281Z" fill="#D6DEE4"/>
</svg>
