<svg width="37" height="37" viewBox="0 0 37 37" fill="none" xmlns="http://www.w3.org/2000/svg">
<path d="M34.521 9.213C32.8671 6.37695 30.623 4.13105 27.7851 2.479C24.9491 0.82695 21.854 0 18.5 0C15.146 0 12.0509 0.82695 9.213 2.479C6.37695 4.13105 4.13105 6.37695 2.479 9.213C0.82695 12.0491 0 15.146 0 18.5C0 21.854 0.8251 24.951 2.479 27.787C4.1329 30.6249 6.37695 32.8689 9.21485 34.521C12.0509 36.173 15.146 37 18.5 37C21.854 37 24.9491 36.173 27.787 34.521C30.6231 32.8689 32.8689 30.6249 34.5229 27.787C36.1749 24.951 37 21.854 37 18.5C37 15.146 36.1749 12.0491 34.521 9.213ZM18.5 3.071C22.2 3.071 25.4782 4.255 28.342 6.62115C26.64 8.79305 24.1129 10.5802 20.757 11.9862C18.9033 8.6321 16.8942 5.8312 14.7241 3.58715C15.9858 3.24305 17.2402 3.071 18.5 3.071ZM6.4935 8.88C7.8884 7.12805 9.5571 5.7609 11.5089 4.773C13.751 6.99485 15.8101 9.768 17.6878 13.098C13.9879 14.208 10.077 14.763 5.957 14.763C4.89695 14.763 4.0959 14.7389 3.552 14.689C4.11995 12.567 5.10045 10.632 6.4935 8.88ZM3.071 18.5C3.071 18.4001 3.07655 18.278 3.0895 18.13C3.10245 17.982 3.108 17.8599 3.108 17.76C3.5779 17.7859 4.29385 17.797 5.25585 17.797C10.188 17.797 14.7759 17.1181 19.018 15.762C19.3639 16.4521 19.7228 17.229 20.091 18.093C17.649 18.635 15.1441 19.9541 12.5781 22.052C10.0122 24.1499 8.14 26.357 6.956 28.675C4.366 25.739 3.071 22.348 3.071 18.5ZM18.5 33.929C14.9961 33.929 11.8511 32.843 9.06315 30.6748C10.175 28.4789 11.8826 26.3792 14.1895 24.383C16.4946 22.385 18.7831 21.1399 21.053 20.646C22.4812 24.5921 23.445 28.6732 23.939 32.893C22.1371 33.5831 20.3241 33.929 18.5 33.929ZM31.598 26.603C30.3659 28.5751 28.7749 30.192 26.825 31.4518C26.381 27.6038 25.53 23.8539 24.2739 20.202C25.9981 20.0799 27.5391 20.017 28.8989 20.017C30.377 20.017 32.018 20.0799 33.818 20.202C33.5701 22.496 32.8301 24.629 31.598 26.603ZM29.304 17.353C27.158 17.353 25.173 17.44 23.347 17.612C22.8771 16.404 22.459 15.4049 22.089 14.615C25.9111 12.9389 28.6232 10.9039 30.2272 8.51C32.4472 11.1259 33.6571 14.1099 33.8531 17.464C32.3509 17.39 30.834 17.353 29.304 17.353Z" fill="#9CA6AE"/>
</svg>
