<svg width="34" height="34" viewBox="0 0 34 34" fill="none" xmlns="http://www.w3.org/2000/svg">
<path d="M17.0007 8.08832C12.2758 8.08832 8.44812 11.9178 8.44812 16.6409C8.44812 21.3658 12.2758 25.1953 17.0007 25.1953C21.7219 25.1953 25.5532 21.3658 25.5532 16.6409C25.5532 11.9178 21.7219 8.08832 17.0007 8.08832ZM17.0007 22.1983C13.9315 22.1983 11.4433 19.71 11.4433 16.6427C11.4433 13.5736 13.9315 11.0872 17.0007 11.0872C20.0698 11.0872 22.5544 13.5736 22.5544 16.6427C22.5544 19.71 20.0698 22.1983 17.0007 22.1983Z" fill="#9CA6AE"/>
<path d="M25.8937 9.76802C26.9951 9.76802 27.888 8.87514 27.888 7.77372C27.888 6.6723 26.9951 5.77942 25.8937 5.77942C24.7923 5.77942 23.8994 6.6723 23.8994 7.77372C23.8994 8.87514 24.7923 9.76802 25.8937 9.76802Z" fill="#9CA6AE"/>
<path d="M32.7886 5.7461C31.9209 3.50945 30.1542 1.74085 27.9175 0.8769C26.6244 0.39035 25.2572 0.1295 23.8734 0.0998998C22.0919 0.0221998 21.5276 0 17.0099 0C12.4922 0 11.9132 -1.86078e-07 10.1464 0.0998998C8.7663 0.12765 7.39915 0.3885 6.106 0.8769C3.8675 1.74085 2.10075 3.50945 1.23495 5.7461C0.748401 7.0411 0.487551 8.4064 0.459801 9.7902C0.380251 11.5699 0.356201 12.1341 0.356201 16.6537C0.356201 21.1714 0.356201 21.7467 0.459801 23.5172C0.487551 24.901 0.748401 26.2663 1.23495 27.5631C2.1026 29.7979 3.86935 31.5665 6.10785 32.4323C7.39545 32.9355 8.7626 33.2204 10.1501 33.2648C11.9317 33.3425 12.4959 33.3666 17.0136 33.3666C21.5313 33.3666 22.1104 33.3666 23.8771 33.2648C25.2591 33.2371 26.6262 32.9744 27.9212 32.4897C30.1579 31.6221 31.9246 29.8553 32.7923 27.6187C33.2788 26.3237 33.5396 24.9584 33.5674 23.5746C33.6469 21.7948 33.671 21.2306 33.671 16.7111C33.671 12.1915 33.671 11.618 33.5674 9.84755C33.5434 8.44525 33.2844 7.0559 32.7886 5.7461ZM30.5353 23.3803C30.5223 24.4459 30.3299 25.5022 29.9599 26.5031C29.3956 27.959 28.2468 29.1097 26.7927 29.6684C25.803 30.0366 24.7596 30.229 23.7032 30.2438C21.9457 30.3252 21.4499 30.3456 16.9433 30.3456C12.433 30.3456 11.9724 30.3456 10.1816 30.2438C9.1289 30.2309 8.0818 30.0366 7.0939 29.6684C5.63425 29.1116 4.478 27.9609 3.91375 26.5031C3.55115 25.5152 3.35505 24.4699 3.3384 23.4154C3.25885 21.6579 3.24035 21.1622 3.24035 16.6556C3.24035 12.1471 3.24035 11.6864 3.3384 9.8938C3.35135 8.8282 3.54375 7.7737 3.91375 6.77285C4.478 5.3132 5.63425 4.16435 7.0939 3.60565C8.0818 3.23935 9.1289 3.0451 10.1816 3.0303C11.9409 2.95075 12.4349 2.92855 16.9433 2.92855C21.4518 2.92855 21.9143 2.92855 23.7032 3.0303C24.7596 3.04325 25.803 3.2375 26.7927 3.60565C28.2468 4.1662 29.3956 5.3169 29.9599 6.77285C30.3225 7.76075 30.5186 8.806 30.5353 9.8605C30.6148 11.6199 30.6351 12.1138 30.6351 16.6222C30.6351 21.1288 30.6352 21.6136 30.5556 23.3822H30.5353V23.3803Z" fill="#9CA6AE"/>
</svg>
