<svg width="39" height="31" viewBox="0 0 39 31" fill="none" xmlns="http://www.w3.org/2000/svg">
<path d="M34.875 0H7.75C5.61294 0 3.875 1.73794 3.875 3.875V13.5625H7.75V7.75L20.15 17.05C20.4949 17.3077 20.9037 17.4375 21.3125 17.4375C21.7213 17.4375 22.1301 17.3077 22.475 17.05L34.875 7.75V25.1875H19.375V29.0625H34.875C37.0121 29.0625 38.75 27.3246 38.75 25.1875V3.875C38.75 1.73794 37.0121 0 34.875 0ZM21.3125 13.0781L9.04037 3.875H33.5846L21.3125 13.0781Z" fill="#D6DEE4"/>
<path d="M0 15.5H13.5625V19.375H0V15.5ZM3.875 21.3125H15.5V25.1875H3.875V21.3125ZM9.6875 27.125H17.4375V31H9.6875V27.125Z" fill="#D6DEE4"/>
</svg>
