<svg width="37" height="30" viewBox="0 0 37 30" fill="none" xmlns="http://www.w3.org/2000/svg">
<path d="M32.621 7.3593C32.6451 7.68305 32.6451 8.00495 32.6451 8.32685C32.6451 18.1781 25.1471 29.5297 11.4441 29.5297C7.2224 29.5297 3.3004 28.3069 0 26.1831C0.5994 26.2515 1.1766 26.2756 1.80005 26.2756C5.2836 26.2756 8.48965 25.0989 11.0519 23.0917C7.77555 23.0232 5.03015 20.8773 4.08295 17.9247C4.5436 17.9931 5.0061 18.0394 5.4908 18.0394C6.15865 18.0394 6.8302 17.9469 7.45365 17.7859C4.0367 17.094 1.47815 14.0952 1.47815 10.4729V10.3804C2.4716 10.9335 3.62415 11.2794 4.84515 11.3257C2.8379 9.99 1.52255 7.70525 1.52255 5.1208C1.52255 3.737 1.8907 2.4679 2.53635 1.3616C6.2049 5.88115 11.7198 8.8356 17.9025 9.15935C17.7878 8.60435 17.7174 8.029 17.7174 7.4518C17.7174 3.3448 21.04 0 25.1692 0C27.3153 0 29.2522 0.8991 30.6138 2.3532C32.2973 2.02945 33.9105 1.406 35.3424 0.55315C34.7892 2.2829 33.6108 3.737 32.0661 4.66015C33.5664 4.49735 35.0205 4.08295 36.3562 3.50575C35.3424 4.98205 34.0751 6.2974 32.621 7.3593Z" fill="#D6DEE4"/>
</svg>
